# xmcd
#
# Track frame offsets: 
#        183
#        18393
#        38235
#        58315
#        79145
#        104200
#        127163
#        148265
#        159683
#        165293
#        183768
#        205820
#        227030
#
# Disc length: 3377 seconds
#
# Revision: 0
# Processed by: cddbd v1.5.2PL0 Copyright (c) Steve Scherf et al.
# Submitted via: ExactAudioCopy v0.99pb5
#
DISCID=b90d2f0d
DTITLE=Live in Montreux 1991 - Bonnie Raitt
DYEAR=1991
DGENRE=Blues
TTITLE0=Love Letter
TTITLE1=Something to Talk About
TTITLE2=Tangles and Dark
TTITLE3=Your Good Thing
TTITLE4=Come to Me
TTITLE5=Nick of Time
TTITLE6=The Road's my Middle Name
TTITLE7=Papa Come Quick
TTITLE8=Senorita
TTITLE9=Thing Called Love
TTITLE10=Good Man, Good Woman
TTITLE11=Three Time Loser
TTITLE12=Just in Case We're Both Wrong
EXTD=
EXTT0=
EXTT1=
EXTT2=
EXTT3=
EXTT4=
EXTT5=
EXTT6=
EXTT7=
EXTT8=
EXTT9=
EXTT10=
EXTT11=
EXTT12=
PLAYORDER=
